<svg xmlns="http://www.w3.org/2000/svg" width="592" height="440" viewBox="0 0 592 440" role="img" aria-labelledby="title desc">
<title id="title">Start of iteration 2</title>
<desc id="desc">The shorter context groups established results, preserves reasons for failure, and leaves room for new work.</desc>
<rect width="592" height="440" fill="white"/>
<g font-family="Arial, Helvetica, sans-serif" fill="#24333b">
<text x="40" y="33" font-size="21" font-weight="500">Start of iteration 2</text>
<text x="56" y="68" font-size="13" fill="#61717a">Start of context</text>
<rect x="56" y="86" width="496" height="36" fill="#e4e9ec"/>
<text x="72" y="110" font-size="17" >The problem</text>
<rect x="56" y="125" width="496" height="44" fill="#def0eb"/>
<text x="72" y="153" font-size="17" >First result + proof</text>
<rect x="56" y="172" width="496" height="44" fill="#def0eb"/>
<text x="72" y="200" font-size="17" >Second result + proof</text>
<rect x="56" y="219" width="496" height="36" fill="#f1f3f4"/>
<text x="72" y="243" font-size="17" >Failed routes + why they fail</text>
<rect x="56" y="258" width="496" height="44" fill="#f1f3f4"/>
<text x="72" y="286" font-size="17" >Next approach + open questions</text>
<path d="M56 327H174 M410 327H552" stroke="#c7d0d4"/>
<text x="292" y="332" font-size="13" text-anchor="middle" fill="#61717a">End of first compaction</text>
<path d="M37 86V345m-4 -5 4 5 4 -5" fill="none" stroke="#c7d0d4"/>
<rect x="56" y="352" width="496" height="72" rx="3" fill="white" stroke="#c7d0d4"/>
<text x="72" y="380" font-size="17" font-weight="500">Iteration 2 begins here</text>
<text x="72" y="404" font-size="14" fill="#61717a">Room for new exploration</text>
</g>
</svg>
